# xmcd
#
# Track frame offsets:
#	150
#	18109
#	35641
#	54801
#	70082
#	88342
#	102902
#	118331
#	136774
#	152263
#	169149
#	184653
#
# Disc length: 2682 seconds
#
# Revision: 1
# Processed by: cddbd v1.4PL0 Copyright (c) Steve Scherf et al.
# Submitted via: EasyCDDAExtractor 5.0.6
#
DISCID=930a780c
DTITLE=Tomeu Penya - Fácil
DYEAR=2003
DGENRE=Pop-Folk
TTITLE0=El Valle
TTITLE1=Me gusta hacer el amor (por la mañana)
TTITLE2=La cuenta atrás
TTITLE3=Pensando en ti
TTITLE4=Húmeda
TTITLE5=Qué fácil es decir te quiero
TTITLE6=Nada
TTITLE7=No me eches caracoles
TTITLE8=Fácil
TTITLE9=Convence a tu mamá
TTITLE10=Sus pechos de miel
TTITLE11=La chica del "Petit Bar"
EXTD=
EXTT0=
EXTT1=
EXTT2=
EXTT3=
EXTT4=
EXTT5=
EXTT6=
EXTT7=
EXTT8=
EXTT9=
EXTT10=
EXTT11=
PLAYORDER=
